<svg width="144" height="40" viewBox="0 0 144 40" fill="none" xmlns="http://www.w3.org/2000/svg">
    <path
        d="M1.17045 38V11.8182H7.34091V38H1.17045ZM4.27273 8.10228C3.29545 8.10228 2.45455 7.77841 1.75 7.13068C1.04545 6.47159 0.693182 5.68182 0.693182 4.76137C0.693182 3.82955 1.04545 3.03977 1.75 2.39205C2.45455 1.73296 3.29545 1.40341 4.27273 1.40341C5.26136 1.40341 6.10227 1.73296 6.79545 2.39205C7.5 3.03977 7.85227 3.82955 7.85227 4.76137C7.85227 5.68182 7.5 6.47159 6.79545 7.13068C6.10227 7.77841 5.26136 8.10228 4.27273 8.10228Z"
        stroke="white" />
    <path
        d="M37.0724 11.8182L27.7486 38H20.9304L11.6065 11.8182H18.1861L24.2031 31.267H24.4759L30.5099 11.8182H37.0724Z"
        stroke="white" />
    <path
        d="M41.3423 38V11.8182H47.5128V38H41.3423ZM44.4446 8.10228C43.4673 8.10228 42.6264 7.77841 41.9219 7.13068C41.2173 6.47159 40.8651 5.68182 40.8651 4.76137C40.8651 3.82955 41.2173 3.03977 41.9219 2.39205C42.6264 1.73296 43.4673 1.40341 44.4446 1.40341C45.4332 1.40341 46.2741 1.73296 46.9673 2.39205C47.6719 3.03977 48.0241 3.82955 48.0241 4.76137C48.0241 5.68182 47.6719 6.47159 46.9673 7.13068C46.2741 7.77841 45.4332 8.10228 44.4446 8.10228Z"
        stroke="white" />
    <path
        d="M53.858 38V11.8182H59.8409V16.1818H60.1136C60.5909 14.6705 61.4091 13.5057 62.5682 12.6875C63.7386 11.858 65.0739 11.4432 66.5739 11.4432C66.9148 11.4432 67.2955 11.4602 67.7159 11.4943C68.1477 11.517 68.5057 11.5568 68.7898 11.6136V17.2898C68.5284 17.1989 68.1136 17.1193 67.5455 17.0511C66.9886 16.9716 66.4489 16.9318 65.9261 16.9318C64.8011 16.9318 63.7898 17.1761 62.892 17.6648C62.0057 18.142 61.3068 18.8068 60.7955 19.6591C60.2841 20.5114 60.0284 21.4943 60.0284 22.608V38H53.858Z"
        stroke="white" />
    <path
        d="M87.3693 11.8182V16.5909H72.3182V11.8182H87.3693ZM76.0341 5.54546H82.2045V30.125C82.2045 30.9545 82.3295 31.5909 82.5795 32.0341C82.8409 32.4659 83.1818 32.7614 83.6023 32.9205C84.0227 33.0796 84.4886 33.1591 85 33.1591C85.3864 33.1591 85.7386 33.1307 86.0568 33.0739C86.3864 33.017 86.6364 32.9659 86.8068 32.9205L87.8466 37.7443C87.517 37.858 87.0455 37.983 86.4318 38.1193C85.8295 38.2557 85.0909 38.3352 84.2159 38.358C82.6705 38.4034 81.2784 38.1705 80.0398 37.6591C78.8011 37.1364 77.8182 36.3295 77.0909 35.2386C76.375 34.1477 76.0227 32.7841 76.0341 31.1477V5.54546Z"
        stroke="white" />
    <path
        d="M103.839 38.5114C101.214 38.5114 98.9474 37.9659 97.0384 36.875C95.1406 35.7727 93.6804 34.2159 92.6577 32.2045C91.6349 30.1818 91.1236 27.8011 91.1236 25.0625C91.1236 22.3693 91.6349 20.0057 92.6577 17.9716C93.6918 15.9261 95.1349 14.3352 96.9872 13.1989C98.8395 12.0511 101.016 11.4773 103.516 11.4773C105.129 11.4773 106.652 11.7386 108.084 12.2614C109.527 12.7727 110.8 13.5682 111.902 14.6477C113.016 15.7273 113.891 17.1023 114.527 18.7727C115.163 20.4318 115.482 22.4091 115.482 24.7045V26.5966H94.0213V22.4375H109.567C109.555 21.2557 109.3 20.2045 108.8 19.2841C108.3 18.3523 107.601 17.6193 106.703 17.0852C105.817 16.5511 104.783 16.2841 103.601 16.2841C102.339 16.2841 101.232 16.5909 100.277 17.2045C99.3224 17.8068 98.5781 18.6023 98.044 19.5909C97.5213 20.5682 97.2543 21.642 97.2429 22.8125V26.4432C97.2429 27.9659 97.5213 29.2727 98.0781 30.3636C98.6349 31.4432 99.4134 32.2727 100.413 32.8523C101.413 33.4205 102.584 33.7045 103.925 33.7045C104.822 33.7045 105.635 33.5795 106.362 33.3295C107.089 33.0682 107.72 32.6875 108.254 32.1875C108.788 31.6875 109.192 31.0682 109.464 30.3295L115.226 30.9773C114.862 32.5 114.169 33.8295 113.146 34.9659C112.135 36.0909 110.839 36.9659 109.26 37.5909C107.68 38.2045 105.874 38.5114 103.839 38.5114Z"
        stroke="white" />
    <path
        d="M125.185 11.8182L130.469 21.483L135.838 11.8182H142.366L134.474 24.9091L142.503 38H136.009L130.469 28.5739L124.98 38H118.435L126.412 24.9091L118.639 11.8182H125.185Z"
        stroke="white" />
</svg>